# xmcd
#
# Track frame offsets:
#	150
#	38770
#	64362
#	80625
#	99380
#	124090
#	138160
#	156730
#	176237
#	189837
#	204430
#	225542
#	240087
#	253577
#
# Disc length: 3765 seconds
#
# Revision: 0
# Processed by: cddbd v1.5.1PL0 Copyright (c) Steve Scherf et al.
# Submitted via: dBpowerAMP V4.0
#
DISCID=b90eb30e
DTITLE=Karajan, Philharmonia Orchestra - Humperdinck - Hansel und Gretel [CD1)
DYEAR=1953
DGENRE=Opera
TTITLE0=Act I. Prelude (Orchestra)
TTITLE1=Act I. Scene 1. Suse, liebe Suse, was raschelt im Stroh ?  (Gretel, Hansel)
TTITLE2=Act I. Scene 1. Bruderchen, komm tanz' mit mir. [Danse Duet] (Gretel, Hansel)
TTITLE3=Act I. Scene 2.. Holla ! Himmel ! (Getrud, Hansel, Gretel)
TTITLE4=Act I. Scene 3. Ral la la la....heissa Mutter, ich bin da ! [Besenbinderlied] (Father, Mother)
TTITLE5=Act I. Scene 3. Druben hinter'm Herrenwald  (Father, Mother)
TTITLE6=Act I. Scene 3. Wenn sie sich verirrten im Walde dort  (Father, Mother)
TTITLE7=Act II. Prelude  [The Witch's Ride] (Orchestra)
TTITLE8=Act II. Scene 1. Ein Mannlein steht im Walde (Gretel, Hansel)
TTITLE9=Act II. Scene 1. Kuckuck, Kuckuck, Erbelschluck ! (Gretel, Hansel)
TTITLE10=Act II. Scene 1. Gretel, ich weiss nicht den Weg nicht mehr !  (Gretel, Hansel)
TTITLE11=Act II. Scene 2. Der kleine Sandmann bin ich, st ! (Sandmann, Gretel, Hansel)
TTITLE12=Act II. Scene 2. Abends, will ich schlafen gehn  [Evening Prayer] (Gretel, Hansel)
TTITLE13=Act II. Scene 3. Dream Pantomine (Orchestra)
EXTD=
EXTT0=
EXTT1=
EXTT2=
EXTT3=
EXTT4=
EXTT5=
EXTT6=
EXTT7=
EXTT8=
EXTT9=
EXTT10=
EXTT11=
EXTT12=
EXTT13=
PLAYORDER=
